<!--?xml version="1.0" standalone="no"?--><svg version="1.0" xmlns="http://www.w3.org/2000/svg" width="300.000000pt" height="300.000000pt" viewBox="0 0 300.000000 300.000000" preserveAspectRatio="xMidYMid meet">
<metadata>
  <rdf:rdf xmlns:rdf="http://www.w3.org/1999/02/22-rdf-syntax-ns#" xmlns:rdfs="http://www.w3.org/2000/01/rdf-schema#" xmlns:dc="http://purl.org/dc/elements/1.1/">
    <rdf:description dc:title="hide under the desk" dc:publisher="Hiox" dc:date="2015-03-14" dc:format="image/svg+xml" dc:language="en">
      <dc:creator>
        <rdf:bag>
          <rdf:li>svgimages.com</rdf:li>
        </rdf:bag>
      </dc:creator>
    </rdf:description>
  </rdf:rdf>
</metadata>
<g transform="translate(0.000000,300.000000) scale(0.100000,-0.100000)" fill="#0A0A0A" stroke="none">
<path d="M2742 2428 c-9 -9 -12 -81 -12 -264 0 -211 2 -255 15 -268 12 -12 15
-48 15 -195 l0 -181 -404 0 c-356 0 -405 -2 -417 -16 -18 -21 0 -48 35 -52
l26 -3 0 -304 c0 -192 -4 -306 -10 -310 -5 -3 -10 -35 -10 -71 l0 -65 38 3 37
3 3 59 c2 32 -2 64 -7 69 -7 7 -11 115 -11 314 l0 303 345 0 345 0 0 -303 c0
-199 -4 -307 -11 -314 -5 -5 -9 -37 -7 -69 l3 -59 35 0 35 0 3 60 c2 32 -2 68
-8 80 -7 13 -10 116 -8 310 l3 290 30 5 c24 4 31 11 33 33 3 22 -1 30 -17 34
-20 5 -21 12 -21 185 0 146 3 182 15 194 13 13 15 57 15 268 0 269 -1 276 -50
276 -14 0 -31 -5 -38 -12z" id="node1" class="node"></path>
<path d="M117 2038 c-2 -7 -2 -28 0 -45 5 -33 5 -33 64 -33 l59 0 2 -657 3
-658 35 0 35 0 5 585 5 585 659 3 c363 1 663 -1 668 -6 4 -4 8 -264 8 -577 0
-314 4 -576 9 -583 5 -8 21 -12 37 -10 l29 3 5 655 5 655 48 3 47 3 0 45 0 44
-859 0 c-678 0 -860 -3 -864 -12z" id="node2" class="node"></path>
<path d="M1195 1736 c-184 -42 -308 -100 -429 -203 -38 -32 -78 -74 -88 -93
-26 -48 -21 -135 11 -176 28 -36 70 -64 96 -64 13 0 2 10 -30 28 -92 50 -110
141 -42 210 29 29 43 35 79 36 61 1 165 -55 260 -142 27 -24 33 -25 170 -27
79 -1 150 -5 159 -9 13 -6 17 -31 22 -134 7 -155 30 -283 63 -339 18 -31 39
-49 86 -72 33 -17 67 -31 75 -31 11 0 13 85 13 478 l0 479 -22 21 c-13 11 -43
30 -68 41 -63 29 -219 27 -355 -3z" id="node3" class="node"></path>
<path d="M732 1425 c-62 -52 -45 -140 33 -180 97 -48 176 -126 200 -194 19
-57 19 -146 0 -201 -37 -106 -1 -180 90 -180 77 0 107 49 136 222 10 63 10 84
-5 148 -31 140 -83 224 -191 310 -127 100 -206 123 -263 75z" id="node4" class="node"></path>
<path d="M445 1249 c-16 -5 -45 -16 -62 -26 l-33 -18 0 -231 c0 -173 3 -234
13 -241 27 -22 114 -47 162 -47 105 0 189 49 253 147 25 38 27 51 27 137 0 86
-3 100 -27 142 -69 116 -209 174 -333 137z" id="node5" class="node"></path>
<path d="M1772 828 l3 -123 92 -3 91 -3 5 73 c3 40 8 91 12 114 l6 41 -95 11
c-52 7 -100 12 -106 12 -7 0 -10 -39 -8 -122z" id="node6" class="node"></path>
<path d="M2063 904 c-3 -9 -1 -31 5 -48 7 -18 12 -60 12 -94 l0 -62 70 0 c113
0 150 28 150 115 0 40 -5 52 -31 76 -29 27 -36 29 -115 29 -69 0 -86 -3 -91
-16z" id="node7" class="node"></path>
</g>
<g transform="translate(0.000000,300.000000) scale(0.100000,-0.100000)" fill="#A0A0A0" stroke="none">

</g>
</svg>